<?xml version="1.0" encoding="UTF-8" standalone="no"?>
<!DOCTYPE svg PUBLIC "-//W3C//DTD SVG 1.1//EN"
 "http://www.w3.org/Graphics/SVG/1.1/DTD/svg11.dtd">
<!-- Generated by graphviz version 2.43.0 (0)
 -->
<!-- Title: navigation Pages: 1 -->
<svg width="333pt" height="46pt"
 viewBox="0.00 0.00 333.00 46.00" xmlns="http://www.w3.org/2000/svg" xmlns:xlink="http://www.w3.org/1999/xlink">
<g id="graph0" class="graph" transform="scale(1 1) rotate(0) translate(4 42)">
<title>navigation</title>
<polygon fill="white" stroke="transparent" points="-4,4 -4,-42 329,-42 329,4 -4,4"/>
<!-- A -->
<g id="node1" class="node">
<title>A</title>
<polygon fill="none" stroke="black" points="60,-37 0,-37 0,-1 60,-1 60,-37"/>
<text text-anchor="middle" x="30" y="-15.3" font-family="Times,serif" font-size="14.00">lexing</text>
</g>
<!-- B -->
<g id="node2" class="node">
<title>B</title>
<polygon fill="none" stroke="black" points="167,-37 96,-37 96,-1 167,-1 167,-37"/>
<text text-anchor="middle" x="131.5" y="-15.3" font-family="Times,serif" font-size="14.00">parsing</text>
</g>
<!-- A&#45;&gt;B -->
<g id="edge1" class="edge">
<title>A&#45;&gt;B</title>
<path fill="none" stroke="black" d="M60.05,-19C68.13,-19 77.1,-19 85.85,-19"/>
<polygon fill="black" stroke="black" points="85.96,-22.5 95.96,-19 85.96,-15.5 85.96,-22.5"/>
</g>
<!-- C -->
<g id="node3" class="node">
<title>C</title>
<polygon fill="none" stroke="black" points="325,-38 203,-38 203,0 325,0 325,-38"/>
<text text-anchor="middle" x="264" y="-22.8" font-family="Times,serif" font-size="14.00">evaluation</text>
<text text-anchor="middle" x="264" y="-7.8" font-family="Times,serif" font-size="14.00">BURADASINIZ</text>
</g>
<!-- B&#45;&gt;C -->
<g id="edge2" class="edge">
<title>B&#45;&gt;C</title>
<path fill="none" stroke="black" d="M167.13,-19C175.14,-19 183.95,-19 192.87,-19"/>
<polygon fill="black" stroke="black" points="192.97,-22.5 202.97,-19 192.97,-15.5 192.97,-22.5"/>
</g>
</g>
</svg>
