<?xml version="1.0" encoding="UTF-8" standalone="no"?>
<!DOCTYPE svg PUBLIC "-//W3C//DTD SVG 1.1//EN"
 "http://www.w3.org/Graphics/SVG/1.1/DTD/svg11.dtd">
<!-- Generated by graphviz version 2.43.0 (0)
 -->
<!-- Title: include/lexer.h Pages: 1 -->
<svg width="292pt" height="137pt"
 viewBox="0.00 0.00 292.00 137.00" xmlns="http://www.w3.org/2000/svg" xmlns:xlink="http://www.w3.org/1999/xlink">
<g id="graph0" class="graph" transform="scale(1 1) rotate(0) translate(4 133)">
<title>include/lexer.h</title>
<!-- Node1 -->
<g id="Node000001" class="node">
<title>Node1</title>
<g id="a_Node000001"><a xlink:title="Lexer">
<polygon fill="#999999" stroke="#666666" points="156,-129 69,-129 69,-110 156,-110 156,-129"/>
<text text-anchor="middle" x="112.5" y="-117" font-family="Helvetica,sans-Serif" font-size="10.00">include/lexer.h</text>
</a>
</g>
</g>
<!-- Node2 -->
<g id="Node000002" class="node">
<title>Node2</title>
<g id="a_Node000002"><a xlink:href="recursive-parser_8h.html" target="_top" xlink:title="Top&#45;Down Parsing">
<polygon fill="white" stroke="#666666" points="143,-19 0,-19 0,0 143,0 143,-19"/>
<text text-anchor="middle" x="71.5" y="-7" font-family="Helvetica,sans-Serif" font-size="10.00">include/recursive&#45;parser.h</text>
</a>
</g>
</g>
<!-- Node1&#45;&gt;Node2 -->
<g id="edge1_Node000001_Node000002" class="edge">
<title>Node1&#45;&gt;Node2</title>
<g id="a_edge1_Node000001_Node000002"><a xlink:title=" ">
<path fill="none" stroke="#63b8ff" d="M102.86,-100.73C98.73,-92.71 94.05,-83.02 90.5,-74 83,-54.94 76.74,-31.69 73.63,-19.28"/>
<polygon fill="#63b8ff" stroke="#63b8ff" points="99.9,-102.63 107.67,-109.83 106.09,-99.36 99.9,-102.63"/>
</a>
</g>
</g>
<!-- Node3 -->
<g id="Node000003" class="node">
<title>Node3</title>
<g id="a_Node000003"><a xlink:href="tokenizer_8h.html" target="_top" xlink:title="Tokenizer">
<polygon fill="white" stroke="#666666" points="207.5,-74 99.5,-74 99.5,-55 207.5,-55 207.5,-74"/>
<text text-anchor="middle" x="153.5" y="-62" font-family="Helvetica,sans-Serif" font-size="10.00">include/tokenizer.h</text>
</a>
</g>
</g>
<!-- Node1&#45;&gt;Node3 -->
<g id="edge2_Node000001_Node000003" class="edge">
<title>Node1&#45;&gt;Node3</title>
<g id="a_edge2_Node000001_Node000003"><a xlink:title=" ">
<path fill="none" stroke="#63b8ff" d="M125.52,-101.67C132.62,-92.5 141.1,-81.52 146.86,-74.09"/>
<polygon fill="#63b8ff" stroke="#63b8ff" points="122.62,-99.7 119.27,-109.75 128.16,-103.98 122.62,-99.7"/>
</a>
</g>
</g>
<!-- Node3&#45;&gt;Node2 -->
<g id="edge4_Node000003_Node000002" class="edge">
<title>Node3&#45;&gt;Node2</title>
<g id="a_edge4_Node000003_Node000002"><a xlink:title=" ">
<path fill="none" stroke="#63b8ff" d="M131.72,-49.42C116.84,-39.81 97.59,-27.37 84.91,-19.17"/>
<polygon fill="#63b8ff" stroke="#63b8ff" points="130.03,-52.5 140.33,-54.98 133.83,-46.62 130.03,-52.5"/>
</a>
</g>
</g>
<!-- Node4 -->
<g id="Node000004" class="node">
<title>Node4</title>
<g id="a_Node000004"><a xlink:href="bc-grammar_8h.html" target="_top" xlink:title="bc Grameri">
<polygon fill="white" stroke="#666666" points="284,-19 161,-19 161,0 284,0 284,-19"/>
<text text-anchor="middle" x="222.5" y="-7" font-family="Helvetica,sans-Serif" font-size="10.00">include/bc&#45;grammar.h</text>
</a>
</g>
</g>
<!-- Node3&#45;&gt;Node4 -->
<g id="edge3_Node000003_Node000004" class="edge">
<title>Node3&#45;&gt;Node4</title>
<g id="a_edge3_Node000003_Node000004"><a xlink:title=" ">
<path fill="none" stroke="#63b8ff" d="M172.54,-48.88C184.96,-39.34 200.74,-27.21 211.21,-19.17"/>
<polygon fill="#63b8ff" stroke="#63b8ff" points="170.38,-46.12 164.59,-54.98 174.65,-51.67 170.38,-46.12"/>
</a>
</g>
</g>
</g>
</svg>
