<?xml version="1.0" encoding="UTF-8" standalone="no"?>
<!DOCTYPE svg PUBLIC "-//W3C//DTD SVG 1.1//EN"
 "http://www.w3.org/Graphics/SVG/1.1/DTD/svg11.dtd">
<!-- Generated by graphviz version 2.43.0 (0)
 -->
<!-- Title: include/map.h Pages: 1 -->
<svg width="379pt" height="137pt"
 viewBox="0.00 0.00 378.50 137.00" xmlns="http://www.w3.org/2000/svg" xmlns:xlink="http://www.w3.org/1999/xlink">
<g id="graph0" class="graph" transform="scale(1 1) rotate(0) translate(4 133)">
<title>include/map.h</title>
<!-- Node1 -->
<g id="Node000001" class="node">
<title>Node1</title>
<g id="a_Node000001"><a xlink:title="Basit hashmap.">
<polygon fill="#999999" stroke="#666666" points="201,-129 115,-129 115,-110 201,-110 201,-129"/>
<text text-anchor="middle" x="158" y="-117" font-family="Helvetica,sans-Serif" font-size="10.00">include/map.h</text>
</a>
</g>
</g>
<!-- Node2 -->
<g id="Node000002" class="node">
<title>Node2</title>
<g id="a_Node000002"><a xlink:href="bc-interpreter_8h.html" target="_top" xlink:title="bc Interpreter">
<polygon fill="white" stroke="#666666" points="130,-74 0,-74 0,-55 130,-55 130,-74"/>
<text text-anchor="middle" x="65" y="-62" font-family="Helvetica,sans-Serif" font-size="10.00">include/bc&#45;interpreter.h</text>
</a>
</g>
</g>
<!-- Node1&#45;&gt;Node2 -->
<g id="edge1_Node000001_Node000002" class="edge">
<title>Node1&#45;&gt;Node2</title>
<g id="a_edge1_Node000001_Node000002"><a xlink:title=" ">
<path fill="none" stroke="#63b8ff" d="M134.25,-104.97C117.25,-95.28 94.87,-82.52 80.21,-74.17"/>
<polygon fill="#63b8ff" stroke="#63b8ff" points="132.64,-108.07 143.06,-109.98 136.1,-101.99 132.64,-108.07"/>
</a>
</g>
</g>
<!-- Node3 -->
<g id="Node000003" class="node">
<title>Node3</title>
<g id="a_Node000003"><a xlink:href="recursive-parser_8h.html" target="_top" xlink:title="Top&#45;Down Parsing">
<polygon fill="white" stroke="#666666" points="229.5,-19 86.5,-19 86.5,0 229.5,0 229.5,-19"/>
<text text-anchor="middle" x="158" y="-7" font-family="Helvetica,sans-Serif" font-size="10.00">include/recursive&#45;parser.h</text>
</a>
</g>
</g>
<!-- Node1&#45;&gt;Node3 -->
<g id="edge2_Node000001_Node000003" class="edge">
<title>Node1&#45;&gt;Node3</title>
<g id="a_edge2_Node000001_Node000003"><a xlink:title=" ">
<path fill="none" stroke="#63b8ff" d="M158,-99.48C158,-75.84 158,-36.5 158,-19.16"/>
<polygon fill="#63b8ff" stroke="#63b8ff" points="154.5,-99.66 158,-109.66 161.5,-99.66 154.5,-99.66"/>
</a>
</g>
</g>
<!-- Node4 -->
<g id="Node000004" class="node">
<title>Node4</title>
<g id="a_Node000004"><a xlink:href="tokenizer_8h.html" target="_top" xlink:title="Tokenizer">
<polygon fill="white" stroke="#666666" points="294,-74 186,-74 186,-55 294,-55 294,-74"/>
<text text-anchor="middle" x="240" y="-62" font-family="Helvetica,sans-Serif" font-size="10.00">include/tokenizer.h</text>
</a>
</g>
</g>
<!-- Node1&#45;&gt;Node4 -->
<g id="edge3_Node000001_Node000004" class="edge">
<title>Node1&#45;&gt;Node4</title>
<g id="a_edge3_Node000001_Node000004"><a xlink:title=" ">
<path fill="none" stroke="#63b8ff" d="M179.78,-104.42C194.66,-94.81 213.91,-82.37 226.59,-74.17"/>
<polygon fill="#63b8ff" stroke="#63b8ff" points="177.67,-101.62 171.17,-109.98 181.47,-107.5 177.67,-101.62"/>
</a>
</g>
</g>
<!-- Node4&#45;&gt;Node3 -->
<g id="edge5_Node000004_Node000003" class="edge">
<title>Node4&#45;&gt;Node3</title>
<g id="a_edge5_Node000004_Node000003"><a xlink:title=" ">
<path fill="none" stroke="#63b8ff" d="M218.22,-49.42C203.34,-39.81 184.09,-27.37 171.41,-19.17"/>
<polygon fill="#63b8ff" stroke="#63b8ff" points="216.53,-52.5 226.83,-54.98 220.33,-46.62 216.53,-52.5"/>
</a>
</g>
</g>
<!-- Node5 -->
<g id="Node000005" class="node">
<title>Node5</title>
<g id="a_Node000005"><a xlink:href="bc-grammar_8h.html" target="_top" xlink:title="bc Grameri">
<polygon fill="white" stroke="#666666" points="370.5,-19 247.5,-19 247.5,0 370.5,0 370.5,-19"/>
<text text-anchor="middle" x="309" y="-7" font-family="Helvetica,sans-Serif" font-size="10.00">include/bc&#45;grammar.h</text>
</a>
</g>
</g>
<!-- Node4&#45;&gt;Node5 -->
<g id="edge4_Node000004_Node000005" class="edge">
<title>Node4&#45;&gt;Node5</title>
<g id="a_edge4_Node000004_Node000005"><a xlink:title=" ">
<path fill="none" stroke="#63b8ff" d="M259.04,-48.88C271.46,-39.34 287.24,-27.21 297.71,-19.17"/>
<polygon fill="#63b8ff" stroke="#63b8ff" points="256.88,-46.12 251.09,-54.98 261.15,-51.67 256.88,-46.12"/>
</a>
</g>
</g>
</g>
</svg>
