<?xml version="1.0" encoding="UTF-8" standalone="no"?>
<!DOCTYPE svg PUBLIC "-//W3C//DTD SVG 1.1//EN"
 "http://www.w3.org/Graphics/SVG/1.1/DTD/svg11.dtd">
<!-- Generated by graphviz version 2.43.0 (0)
 -->
<!-- Title: include/tokenizer.h Pages: 1 -->
<svg width="292pt" height="82pt"
 viewBox="0.00 0.00 292.00 82.00" xmlns="http://www.w3.org/2000/svg" xmlns:xlink="http://www.w3.org/1999/xlink">
<g id="graph0" class="graph" transform="scale(1 1) rotate(0) translate(4 78)">
<title>include/tokenizer.h</title>
<!-- Node1 -->
<g id="Node000001" class="node">
<title>Node1</title>
<g id="a_Node000001"><a xlink:title="Tokenizer">
<polygon fill="#999999" stroke="#666666" points="190.5,-74 82.5,-74 82.5,-55 190.5,-55 190.5,-74"/>
<text text-anchor="middle" x="136.5" y="-62" font-family="Helvetica,sans-Serif" font-size="10.00">include/tokenizer.h</text>
</a>
</g>
</g>
<!-- Node2 -->
<g id="Node000002" class="node">
<title>Node2</title>
<g id="a_Node000002"><a xlink:href="bc-grammar_8h.html" target="_top" xlink:title="bc Grameri">
<polygon fill="white" stroke="#666666" points="123,-19 0,-19 0,0 123,0 123,-19"/>
<text text-anchor="middle" x="61.5" y="-7" font-family="Helvetica,sans-Serif" font-size="10.00">include/bc&#45;grammar.h</text>
</a>
</g>
</g>
<!-- Node1&#45;&gt;Node2 -->
<g id="edge1_Node000001_Node000002" class="edge">
<title>Node1&#45;&gt;Node2</title>
<g id="a_edge1_Node000001_Node000002"><a xlink:title=" ">
<path fill="none" stroke="#63b8ff" d="M116.19,-49.15C102.64,-39.57 85.26,-27.29 73.77,-19.17"/>
<polygon fill="#63b8ff" stroke="#63b8ff" points="114.26,-52.07 124.45,-54.98 118.3,-46.36 114.26,-52.07"/>
</a>
</g>
</g>
<!-- Node3 -->
<g id="Node000003" class="node">
<title>Node3</title>
<g id="a_Node000003"><a xlink:href="recursive-parser_8h.html" target="_top" xlink:title="Top&#45;Down Parsing">
<polygon fill="white" stroke="#666666" points="284,-19 141,-19 141,0 284,0 284,-19"/>
<text text-anchor="middle" x="212.5" y="-7" font-family="Helvetica,sans-Serif" font-size="10.00">include/recursive&#45;parser.h</text>
</a>
</g>
</g>
<!-- Node1&#45;&gt;Node3 -->
<g id="edge2_Node000001_Node000003" class="edge">
<title>Node1&#45;&gt;Node3</title>
<g id="a_edge2_Node000001_Node000003"><a xlink:title=" ">
<path fill="none" stroke="#63b8ff" d="M157.08,-49.15C170.81,-39.57 188.43,-27.29 200.07,-19.17"/>
<polygon fill="#63b8ff" stroke="#63b8ff" points="154.91,-46.39 148.71,-54.98 158.92,-52.14 154.91,-46.39"/>
</a>
</g>
</g>
</g>
</svg>
